<?xml version="1.0" standalone="no"?>
<!DOCTYPE svg PUBLIC "-//W3C//DTD SVG 20010904//EN"
 "http://www.w3.org/TR/2001/REC-SVG-20010904/DTD/svg10.dtd">
<svg version="1.0" xmlns="http://www.w3.org/2000/svg"
 width="974.000000pt" height="974.000000pt" viewBox="0 0 974.000000 974.000000"
 preserveAspectRatio="xMidYMid meet">

<g transform="translate(0.000000,974.000000) scale(0.100000,-0.100000)"
fill="#000000" stroke="none">
<path d="M4626 9511 c-3 -4 -26 -11 -52 -14 -60 -6 -183 -69 -255 -129 -31
-26 -97 -69 -145 -97 -49 -28 -95 -54 -102 -58 -7 -4 -15 -24 -16 -44 -2 -26
-17 -53 -50 -94 -25 -31 -46 -60 -46 -63 0 -4 -14 -23 -32 -42 -44 -49 -88
-121 -88 -142 0 -11 -23 -54 -52 -96 -45 -66 -52 -83 -50 -120 2 -49 -20 -99
-95 -215 -69 -107 -167 -302 -194 -386 -21 -64 -29 -77 -64 -100 -54 -35 -73
-51 -104 -85 -14 -15 -53 -49 -86 -74 -33 -25 -62 -49 -64 -54 -2 -5 -19 -24
-38 -41 -50 -46 -108 -139 -195 -317 -42 -85 -95 -185 -117 -222 -23 -37 -41
-72 -41 -77 0 -6 -11 -34 -24 -63 -57 -127 -71 -209 -70 -418 0 -128 4 -178
18 -225 26 -86 33 -133 31 -211 -3 -102 -8 -114 -48 -103 -63 17 -263 48 -317
50 -82 3 -180 -17 -202 -41 -10 -11 -23 -20 -29 -20 -19 0 -98 -71 -105 -93
-3 -12 -20 -44 -37 -72 -18 -27 -42 -76 -54 -110 -12 -33 -31 -87 -43 -120
-17 -45 -21 -74 -17 -116 6 -67 40 -149 61 -149 9 0 16 -7 16 -15 0 -20 -25
-191 -45 -305 -8 -47 -17 -103 -21 -125 -3 -22 -12 -58 -19 -80 -8 -22 -19
-85 -25 -140 -6 -55 -15 -134 -21 -175 -6 -41 -12 -104 -15 -140 -4 -42 -11
-69 -21 -77 -12 -10 -17 -34 -18 -105 -2 -81 -20 -217 -56 -408 -13 -73 -13
-303 1 -365 7 -27 16 -108 21 -180 4 -71 10 -158 13 -193 5 -80 19 -141 59
-265 32 -102 36 -108 116 -156 l41 -25 -6 -170 c-3 -94 -7 -317 -9 -496 -2
-266 -5 -336 -19 -384 -16 -55 -15 -60 2 -89 22 -39 75 -58 98 -35 32 32 47
171 43 393 -8 429 4 685 32 685 5 0 37 -14 71 -31 73 -37 170 -69 209 -69 15
0 68 -14 116 -31 48 -17 108 -38 133 -46 25 -9 76 -31 114 -49 38 -19 75 -34
83 -34 19 0 88 -36 153 -80 30 -20 67 -40 82 -43 25 -7 26 -10 18 -33 -7 -18
-6 -35 6 -62 23 -53 24 -161 3 -282 -10 -58 -21 -132 -24 -165 -3 -33 -10 -80
-15 -105 -6 -25 -8 -104 -6 -175 4 -159 11 -175 76 -175 73 0 84 25 55 125
-10 33 -14 74 -11 111 11 129 37 331 47 369 16 60 21 228 9 292 -5 31 -9 58
-7 59 4 4 279 -65 302 -75 11 -5 32 -12 46 -15 14 -3 41 -16 60 -29 39 -27
109 -52 194 -72 98 -22 165 -41 245 -68 41 -14 102 -30 135 -36 79 -13 226
-46 295 -66 30 -9 69 -20 86 -24 18 -5 56 -20 85 -34 47 -23 71 -27 184 -32
157 -7 196 -11 300 -35 44 -10 121 -21 170 -25 50 -4 113 -8 140 -11 28 -2
106 -6 175 -9 277 -12 272 -11 322 -73 19 -24 45 -20 78 10 18 17 38 21 117
24 52 2 129 8 171 14 96 12 467 18 479 7 10 -10 11 -223 1 -287 -8 -57 -17
-150 -23 -265 -3 -49 -9 -117 -14 -150 -11 -80 -3 -107 37 -119 41 -12 77 11
86 55 3 17 6 93 6 168 0 75 5 154 11 176 5 22 12 112 16 200 3 88 9 170 14
182 6 17 16 21 56 22 26 0 64 5 83 11 19 6 56 14 82 16 l48 6 -15 -29 c-24
-46 -19 -87 15 -121 l29 -30 -50 -50 c-47 -47 -50 -53 -45 -87 9 -54 22 -72
58 -79 58 -11 64 -19 43 -62 -14 -31 -15 -43 -6 -75 10 -32 20 -42 68 -65 48
-22 64 -25 107 -19 75 10 89 12 108 20 14 6 16 -6 19 -107 1 -62 3 -130 4
-151 1 -20 -4 -61 -11 -89 -8 -29 -14 -76 -14 -105 0 -28 -5 -55 -11 -58 -5
-4 -15 -19 -20 -33 -24 -62 28 -121 93 -104 l33 8 5 130 c3 71 8 134 12 140 7
11 9 69 8 229 0 50 2 118 6 153 l6 63 88 87 c79 79 170 200 170 227 0 5 8 26
19 45 10 19 23 62 29 95 6 33 13 70 16 83 3 12 -4 50 -15 84 -10 33 -19 70
-19 82 0 11 -18 56 -39 100 l-38 78 21 42 c118 225 144 360 99 516 -17 61 -68
164 -96 195 -10 11 -30 42 -46 70 -16 27 -50 72 -75 99 -26 27 -49 60 -52 73
-9 36 4 191 20 243 25 82 49 135 77 170 74 93 146 276 155 390 2 36 9 97 15
135 9 67 8 199 -5 388 -7 98 -36 233 -59 268 -8 13 -25 49 -38 79 -13 30 -31
62 -41 72 -10 10 -18 28 -19 41 -6 124 -28 327 -39 346 -5 11 -10 31 -10 44 0
24 -74 221 -91 242 -4 6 -13 33 -19 60 -6 27 -53 135 -104 239 -52 105 -97
202 -101 216 -9 29 -61 128 -79 150 -7 8 -26 42 -42 75 -16 32 -36 67 -45 76
-9 9 -21 23 -25 30 -5 8 -21 21 -36 29 -15 8 -71 46 -125 83 -54 38 -114 79
-133 92 -19 14 -42 31 -50 38 -33 30 -112 77 -129 77 -10 0 -30 -10 -45 -21
-22 -17 -27 -28 -24 -58 3 -31 7 -37 33 -41 26 -5 30 -9 31 -40 0 -40 22 -138
35 -160 19 -32 36 -78 53 -140 10 -36 31 -90 47 -120 15 -30 31 -73 35 -95 4
-22 14 -53 22 -70 15 -31 123 -341 149 -430 30 -104 34 -122 47 -210 9 -59 11
-113 6 -155 -5 -35 -7 -68 -4 -71 7 -11 -28 -34 -55 -36 -88 -8 -123 -12 -153
-19 -36 -9 -437 -12 -439 -4 -1 3 -3 32 -5 65 -2 33 -15 98 -30 145 -14 47
-32 110 -40 140 -16 58 -55 168 -84 235 -10 22 -23 58 -30 80 -8 22 -28 72
-45 110 -18 39 -36 81 -40 95 -4 14 -11 30 -16 35 -4 6 -13 31 -19 55 -6 25
-12 50 -13 55 -9 34 -85 166 -116 200 -20 22 -50 61 -66 87 -46 74 -131 102
-179 60 -10 -10 -21 -15 -23 -12 -3 3 -11 -2 -16 -12 -8 -12 -4 -32 16 -80 28
-67 57 -204 57 -276 0 -24 4 -51 10 -61 10 -20 22 -216 13 -225 -3 -3 -19 13
-35 35 -16 22 -39 44 -52 48 -12 5 -30 20 -38 33 -9 12 -43 52 -77 87 -34 35
-61 68 -61 74 0 5 -15 27 -32 48 -18 21 -50 59 -70 86 -21 26 -63 79 -93 116
-30 38 -55 73 -55 78 0 13 -90 129 -121 156 -15 13 -41 44 -57 71 l-30 47 8
175 c9 187 11 197 97 445 19 55 43 125 53 156 10 31 32 78 49 104 17 26 38 73
47 104 8 31 27 76 41 101 13 25 35 72 48 105 12 33 45 107 73 165 27 58 60
130 72 161 11 31 36 78 53 105 18 27 45 72 61 99 16 28 51 73 77 100 73 75
139 170 146 208 4 30 2 35 -23 45 -53 20 -91 21 -175 6 -93 -16 -147 -39 -211
-89 -24 -19 -56 -37 -71 -41 -44 -9 -71 -26 -143 -90 -145 -127 -267 -247
-317 -314 -22 -30 -53 -68 -68 -85 -14 -16 -43 -59 -64 -95 -20 -36 -41 -67
-46 -70 -8 -5 -91 -179 -91 -190 0 -3 -8 -16 -18 -30 -9 -14 -21 -36 -25 -50
-4 -14 -28 -68 -54 -120 -26 -52 -58 -121 -70 -152 -13 -32 -27 -58 -31 -58
-13 0 -278 257 -321 312 -14 18 -33 47 -42 63 -15 28 -27 42 -103 112 -17 15
-49 60 -72 100 -41 71 -42 73 -28 110 19 52 31 87 57 163 12 36 26 69 31 75 4
5 8 19 8 30 0 12 9 48 20 80 11 32 20 69 20 83 0 14 12 41 27 61 17 22 28 49
29 73 1 24 12 52 28 72 14 19 35 58 46 88 12 29 27 67 35 83 7 17 29 67 48
112 19 45 44 94 56 109 11 15 26 45 32 68 6 22 26 64 45 91 18 28 44 76 58
106 13 30 39 77 58 104 18 28 39 61 45 75 6 14 28 60 48 103 37 79 40 120 13
155 -12 14 -64 16 -72 3z m-26 -111 c0 -17 -9 -39 -20 -50 -11 -11 -20 -26
-20 -32 0 -12 -33 -70 -88 -157 -12 -20 -30 -52 -39 -71 -10 -19 -25 -46 -34
-60 -9 -14 -38 -68 -64 -120 -27 -52 -53 -102 -60 -110 -6 -8 -20 -42 -30 -75
-11 -33 -25 -67 -32 -76 -7 -9 -24 -44 -38 -79 -14 -35 -31 -70 -38 -79 -24
-30 -56 -97 -62 -131 -3 -19 -10 -37 -15 -40 -9 -6 -60 -157 -60 -180 0 -27
-105 -339 -131 -388 -19 -36 -15 -71 10 -79 26 -10 61 -45 61 -63 0 -25 40
-80 99 -135 29 -27 60 -63 68 -80 9 -16 19 -32 22 -35 4 -3 31 -34 60 -69 29
-35 91 -98 139 -140 47 -42 110 -105 139 -141 82 -99 83 -100 125 -100 43 0
47 5 68 100 15 64 19 74 121 285 42 88 89 189 104 225 31 70 134 232 187 292
18 21 55 64 81 96 55 67 234 245 287 284 19 14 67 43 105 64 39 20 86 49 105
64 19 15 50 33 69 39 36 12 91 15 91 5 0 -3 -25 -34 -56 -67 -92 -101 -172
-232 -246 -402 -17 -38 -45 -101 -63 -140 -54 -115 -141 -317 -155 -360 -7
-22 -20 -51 -30 -65 -22 -33 -89 -194 -101 -245 -6 -22 -25 -80 -44 -130 -53
-142 -87 -312 -80 -393 4 -37 8 -98 10 -137 2 -38 3 -79 4 -91 1 -11 11 -31
24 -44 12 -13 29 -34 37 -46 8 -12 41 -56 73 -98 31 -42 57 -81 57 -87 0 -6
21 -36 48 -66 26 -31 61 -75 77 -99 98 -140 252 -334 266 -334 19 0 123 -119
156 -179 20 -36 49 -82 64 -101 15 -19 30 -46 34 -59 11 -35 70 -133 94 -155
12 -11 21 -24 21 -31 0 -7 9 -20 19 -29 11 -10 31 -43 46 -74 26 -55 47 -86
94 -140 13 -15 36 -49 52 -77 16 -27 66 -89 111 -136 46 -48 90 -102 99 -120
82 -169 107 -239 114 -334 4 -44 9 -93 12 -110 10 -66 3 -109 -25 -144 -43
-53 -52 -56 -115 -36 -31 9 -58 24 -61 31 -3 8 -10 14 -16 14 -6 0 -22 8 -37
17 -14 10 -31 18 -38 19 -7 1 -39 20 -71 42 -32 22 -74 43 -93 47 -18 4 -42
16 -53 27 -11 11 -43 31 -71 43 -29 13 -63 35 -76 49 -13 14 -30 26 -38 26
-14 0 -82 58 -132 113 -14 16 -49 44 -78 62 -28 19 -57 43 -63 55 -6 11 -37
33 -70 50 -32 16 -65 38 -72 49 -15 22 -112 101 -123 101 -3 0 -18 14 -32 30
-14 17 -39 37 -57 44 -17 8 -47 29 -66 47 -19 19 -48 42 -64 53 -16 10 -48 36
-70 56 -23 21 -62 51 -87 66 -92 58 -135 88 -161 116 -14 15 -35 28 -47 28
-11 0 -42 19 -69 43 -27 23 -70 58 -96 77 -26 19 -57 44 -69 56 -20 18 -52 42
-96 69 -9 6 -25 19 -36 30 -11 11 -31 26 -45 32 -61 31 -253 179 -342 266 -54
51 -68 71 -68 94 0 33 -28 68 -62 78 -13 4 -41 22 -63 39 -22 18 -67 47 -100
66 -77 43 -225 142 -261 175 -31 29 -46 31 -64 10 -7 -8 -23 -15 -37 -15 -40
0 -107 -81 -140 -170 -22 -59 -43 -150 -43 -184 0 -19 11 -46 25 -66 14 -19
25 -38 25 -43 0 -5 11 -22 25 -39 14 -16 25 -35 25 -41 0 -15 69 -88 145 -153
33 -29 112 -103 175 -166 73 -73 147 -136 203 -171 48 -31 87 -61 87 -66 0 -6
29 -31 64 -56 36 -25 77 -60 93 -78 16 -18 46 -45 66 -62 21 -16 59 -47 85
-68 26 -21 71 -56 100 -78 44 -33 52 -45 52 -72 0 -40 7 -50 45 -65 17 -7 41
-21 55 -32 l25 -18 -30 -7 c-17 -4 -70 -20 -118 -36 -49 -16 -91 -29 -93 -29
-2 0 -4 13 -4 28 0 39 -11 50 -135 132 -104 68 -256 181 -300 222 -11 10 -44
35 -72 56 -80 59 -212 171 -275 235 -37 37 -65 57 -80 57 -30 0 -68 -26 -68
-47 0 -8 -9 -28 -20 -43 -34 -48 -60 -147 -71 -274 -21 -240 -25 -322 -17
-361 5 -22 8 -67 6 -100 -2 -65 16 -122 42 -128 12 -3 11 -6 -5 -12 -39 -17
-103 -65 -119 -90 -9 -13 -16 -37 -16 -53 0 -34 49 -118 99 -171 l35 -35 -33
-7 c-41 -9 -62 -36 -57 -75 2 -17 0 -53 -4 -80 -4 -27 -11 -98 -14 -159 -3
-60 -8 -146 -11 -190 -12 -193 -15 -488 -4 -501 6 -7 11 -37 10 -66 -1 -86 20
-117 80 -118 9 0 27 9 40 19 l25 19 -13 119 c-10 99 -17 355 -14 508 4 222 10
315 20 340 11 26 15 49 20 113 2 19 29 14 36 -7 3 -11 22 -25 43 -32 20 -6 42
-15 48 -20 6 -5 60 -11 120 -15 60 -3 136 -10 169 -15 33 -6 93 -14 133 -19
40 -5 78 -12 85 -17 6 -4 84 -8 172 -10 140 -2 169 -5 230 -27 83 -28 244 -52
445 -66 203 -13 259 -19 307 -31 23 -6 53 -9 66 -5 21 5 70 -1 157 -19 8 -2
29 -4 47 -4 28 -1 32 -5 35 -33 2 -25 9 -33 32 -39 15 -4 36 -15 45 -23 9 -8
49 -29 88 -45 40 -17 100 -48 135 -68 34 -20 88 -44 119 -54 31 -10 85 -36
120 -58 35 -23 80 -48 99 -57 19 -9 90 -42 156 -75 67 -32 124 -59 127 -59 9
0 111 -46 182 -82 58 -30 169 -98 250 -155 21 -16 48 -30 60 -33 11 -3 32 -27
46 -54 15 -27 31 -51 37 -55 6 -3 20 -29 32 -56 18 -41 21 -65 18 -132 -3 -74
-5 -83 -31 -107 -28 -26 -29 -27 -22 -111 l7 -84 -33 -6 c-65 -11 -164 -13
-184 -2 -22 12 -228 11 -285 -1 -26 -6 -36 -14 -38 -30 -3 -19 -8 -22 -30 -18
-15 3 -63 8 -107 11 -44 3 -107 10 -140 15 -33 6 -107 10 -163 10 -57 0 -158
7 -225 15 -67 8 -138 14 -157 13 -116 -3 -308 14 -420 37 -232 48 -315 65
-345 70 -125 20 -167 28 -215 40 -30 8 -89 22 -130 31 -41 9 -87 23 -101 30
-15 7 -42 16 -60 19 -19 3 -86 21 -149 41 -63 19 -129 39 -146 45 -17 5 -37 9
-45 9 -15 0 -146 38 -319 94 -58 18 -141 41 -185 50 -80 17 -331 94 -350 107
-5 4 -39 15 -74 24 -36 9 -82 25 -103 36 -20 10 -48 19 -62 19 -23 0 -49 9
-131 46 -16 7 -50 18 -74 24 -24 6 -55 16 -70 22 -14 6 -37 12 -49 14 -30 4
-135 72 -185 120 -52 49 -84 103 -107 177 -29 94 -31 123 -28 472 1 72 0 203
-1 292 -1 89 0 166 3 171 5 9 23 169 33 292 3 35 11 98 19 140 9 41 19 104 24
140 16 118 50 301 59 318 4 9 12 35 15 57 4 22 16 55 27 74 26 45 18 76 -25
96 -28 14 -38 14 -55 4 -45 -29 -83 -150 -131 -419 -20 -110 -41 -213 -45
-221 -3 -4 -7 -42 -9 -85 -6 -116 -26 -322 -35 -374 -5 -25 -9 -228 -10 -451
-1 -338 1 -413 14 -449 8 -23 14 -64 13 -90 -2 -50 16 -83 51 -95 9 -3 27 -22
40 -42 13 -21 35 -55 48 -75 14 -20 41 -47 61 -60 20 -13 69 -45 107 -71 39
-26 75 -47 81 -47 7 0 37 -11 68 -25 31 -14 72 -25 92 -25 19 0 61 -11 94 -25
33 -14 67 -25 76 -25 23 0 187 -56 234 -80 21 -11 50 -20 62 -20 13 -1 41 -8
63 -16 45 -17 93 -30 245 -69 58 -14 142 -39 188 -56 46 -16 94 -29 106 -29
12 0 26 -4 31 -9 6 -4 69 -22 140 -40 72 -17 144 -36 160 -42 17 -6 73 -24
125 -40 52 -17 115 -37 140 -46 25 -8 74 -19 110 -23 36 -5 82 -16 103 -24 20
-9 74 -20 120 -25 45 -6 145 -24 222 -41 310 -69 409 -83 685 -94 443 -19 537
-24 550 -30 13 -5 80 -11 178 -15 12 -1 40 -19 62 -41 41 -42 54 -46 110 -30
19 5 67 12 105 15 118 8 218 23 270 39 28 9 67 16 87 16 20 0 39 4 42 9 3 4
29 11 57 15 29 4 77 18 108 30 31 13 76 27 101 31 25 4 68 18 95 31 28 12 62
27 76 33 18 6 28 19 33 41 9 48 8 54 -14 78 -28 30 -54 28 -98 -8 -41 -32
-111 -61 -155 -62 -15 -1 -30 -5 -33 -10 -3 -4 -9 -6 -14 -3 -5 3 -11 1 -15
-5 -3 -5 -17 -10 -30 -10 -24 0 -24 0 -9 47 8 27 19 62 24 78 5 17 7 94 5 173
-2 124 -6 146 -22 165 -10 12 -26 39 -36 59 -9 20 -27 44 -41 53 -14 9 -28 25
-31 35 -13 42 -67 94 -119 115 -70 29 -124 62 -136 86 -6 10 -16 19 -23 19
-16 0 -185 80 -217 103 -13 9 -34 17 -45 17 -23 0 -338 157 -343 171 -2 5 -9
9 -16 9 -16 0 -131 64 -181 100 -54 40 -96 61 -107 54 -15 -9 -56 5 -75 25
-10 11 -29 21 -43 24 -14 3 2 3 35 1 64 -6 94 -6 193 -4 56 1 66 -2 87 -24 13
-14 31 -26 40 -26 8 0 23 -4 33 -9 9 -5 44 -19 77 -32 33 -12 106 -44 162 -71
57 -26 135 -59 175 -72 40 -14 120 -45 177 -70 57 -25 112 -46 122 -46 10 0
21 -5 24 -10 3 -5 13 -10 22 -10 9 0 52 -18 97 -39 90 -44 166 -61 267 -61
l68 0 31 47 32 47 -1 135 c-1 127 -11 193 -32 216 -5 5 -9 18 -9 30 0 11 -9
31 -19 44 -18 23 -25 24 -147 27 -150 4 -263 12 -277 21 -27 16 -889 32 -997
18 -19 -3 -48 0 -65 5 -16 5 -59 11 -95 14 -36 2 -90 7 -120 10 -30 3 -77 8
-105 10 -27 3 -73 9 -100 14 -28 6 -86 12 -130 13 -44 1 -91 6 -105 10 -14 4
-56 10 -95 13 -38 2 -95 7 -125 10 -30 3 -91 8 -135 11 -138 9 -198 16 -250
30 -27 8 -66 16 -85 19 -20 3 -51 12 -70 19 -45 19 -144 31 -245 29 -44 -1
-116 5 -160 13 -44 8 -108 16 -143 19 -35 3 -67 8 -72 11 -5 3 -56 6 -114 6
-88 0 -108 3 -129 19 -14 11 -30 20 -36 20 -19 0 -121 93 -121 110 0 5 -4 10
-10 10 -5 0 -17 12 -26 26 -17 25 -17 26 12 50 50 42 154 83 224 88 24 2 68
13 160 41 59 17 154 35 210 39 25 2 74 10 110 19 110 27 244 59 260 61 57 8
102 21 149 42 29 14 72 28 95 31 22 3 61 12 86 20 25 8 63 17 85 19 22 2 58
11 80 18 22 8 65 17 95 20 93 9 319 44 329 50 5 4 27 8 48 11 76 8 118 18 134
32 15 12 24 8 77 -36 34 -28 63 -51 66 -51 3 0 51 -37 106 -82 56 -46 127
-103 159 -128 32 -25 79 -66 105 -93 27 -26 53 -47 58 -47 6 0 27 -9 47 -19
20 -10 71 -36 114 -57 42 -21 77 -42 77 -46 0 -5 6 -8 13 -8 11 0 35 -14 106
-62 14 -10 37 -23 51 -29 14 -5 34 -19 45 -29 11 -10 47 -23 80 -30 33 -6 74
-16 91 -21 46 -14 82 3 102 50 9 21 31 48 48 59 26 17 34 31 44 79 20 99 23
145 10 153 -6 4 -16 54 -22 116 -7 78 -16 117 -29 136 -11 14 -19 34 -19 45 0
36 -54 155 -83 185 -8 7 -26 34 -42 58 -15 25 -35 49 -43 54 -39 23 -93 82
-113 124 -13 26 -37 61 -55 78 -17 17 -53 71 -79 120 -51 95 -76 135 -111 173
-12 13 -37 53 -55 90 -33 66 -34 67 -35 216 -1 83 -6 197 -12 255 -6 58 -14
141 -17 185 l-5 80 24 -28 c32 -39 90 -160 110 -229 10 -31 30 -83 45 -115 50
-104 59 -127 81 -203 12 -41 35 -100 51 -130 15 -30 35 -84 43 -120 9 -36 27
-94 42 -130 22 -56 26 -80 25 -168 0 -128 9 -142 97 -142 31 -1 111 -3 177 -6
287 -12 474 -2 521 27 17 10 38 19 46 19 8 0 23 8 32 19 14 16 17 39 15 162
-1 79 -6 178 -11 219 -10 86 -49 237 -82 325 -32 83 -70 196 -96 285 -24 80
-48 145 -84 225 -12 28 -33 84 -45 125 -12 41 -29 90 -37 108 -24 55 -19 70
14 40 15 -14 46 -38 70 -53 23 -15 42 -31 42 -34 0 -4 16 -15 35 -26 38 -20
153 -164 200 -249 15 -27 37 -78 50 -115 12 -36 39 -95 58 -131 58 -105 106
-206 132 -278 14 -37 29 -76 34 -87 16 -35 23 -58 48 -155 13 -52 28 -111 33
-130 6 -19 12 -60 15 -90 2 -30 7 -79 11 -107 3 -32 0 -66 -7 -88 -12 -31 -11
-39 6 -68 10 -17 33 -45 50 -62 17 -16 37 -46 44 -65 7 -19 21 -51 31 -70 20
-38 28 -74 36 -165 3 -33 11 -111 19 -174 8 -62 13 -116 11 -120 -4 -5 -15
-96 -31 -251 -7 -67 -43 -191 -64 -220 -10 -14 -22 -37 -26 -50 -4 -14 -33
-63 -64 -110 -40 -60 -61 -103 -70 -145 -7 -33 -16 -71 -20 -85 -4 -14 -3 -77
1 -140 5 -63 10 -137 11 -165 2 -46 5 -51 36 -67 18 -9 44 -32 56 -50 74 -110
121 -188 133 -223 7 -22 20 -47 27 -55 21 -23 22 -162 3 -225 -22 -71 -95
-214 -126 -248 -14 -15 -40 -53 -57 -84 -32 -61 -33 -62 -168 -123 -71 -33
-94 -39 -125 -34 -24 4 -51 0 -75 -10 -20 -8 -65 -18 -100 -21 -97 -9 -200
-26 -224 -37 -16 -8 -56 -7 -140 4 -65 8 -138 13 -163 11 -25 -2 -110 -5 -190
-7 -80 -2 -163 -7 -185 -10 -22 -2 -96 -7 -165 -10 -100 -5 -139 -2 -198 12
-47 12 -121 19 -205 21 -72 1 -135 5 -140 8 -4 2 -47 6 -95 8 -141 6 -320 23
-339 33 -34 17 -138 31 -239 33 -81 1 -118 7 -190 30 -106 35 -323 95 -414
115 -36 8 -72 18 -80 23 -9 5 -36 12 -60 16 -25 4 -53 12 -64 17 -10 6 -62 19
-115 30 -53 11 -103 21 -111 23 -38 8 -157 49 -170 59 -34 25 -66 39 -139 58
-41 11 -80 23 -86 27 -5 5 -32 14 -60 20 -318 76 -361 89 -412 124 -29 19 -76
43 -105 52 -29 10 -86 35 -126 56 -40 20 -110 50 -155 65 -45 14 -86 30 -92
35 -5 5 -20 9 -32 9 -13 0 -34 6 -46 14 -12 7 -58 22 -102 32 -44 10 -82 21
-85 24 -3 4 -17 10 -31 13 -31 8 -194 99 -277 155 -56 39 -60 44 -76 104 -46
170 -47 182 -41 268 4 47 6 184 5 305 l-2 220 26 22 c23 20 26 31 27 90 1 38
3 79 4 93 1 14 5 137 9 273 3 137 10 268 16 290 5 23 10 74 11 112 1 63 24
190 48 271 5 17 12 64 16 105 3 41 11 91 16 111 5 21 11 72 13 115 3 43 16
122 30 177 19 73 23 103 15 117 -18 35 2 42 35 12 37 -35 81 -63 98 -63 6 0
26 10 44 22 25 17 35 33 40 63 3 22 10 48 15 57 8 15 11 15 34 -7 39 -35 73
-40 101 -14 13 12 24 28 24 34 0 21 53 111 108 185 2 3 29 7 60 10 54 5 58 7
67 38 7 24 15 32 32 32 35 0 75 71 80 140 2 30 7 84 12 120 11 90 5 178 -22
295 -28 123 -29 344 -3 464 19 87 66 207 101 259 14 20 25 42 25 48 0 6 7 17
15 24 15 12 165 311 165 328 0 4 32 39 70 77 39 38 70 73 70 77 0 8 59 67 120
121 23 21 35 26 43 18 34 -34 70 1 93 92 11 44 27 80 44 99 17 18 34 54 43 94
11 43 33 90 68 142 63 93 89 139 89 155 0 7 25 54 55 106 35 59 53 101 50 112
-10 30 94 219 194 354 140 187 156 210 152 230 -1 11 -7 26 -13 32 -7 9 -2 16
18 24 41 16 37 14 196 121 79 53 159 101 178 106 19 6 36 11 38 11 1 1 2 -12
2 -29z m-1154 -3496 c38 -25 83 -58 99 -73 17 -15 46 -36 65 -46 82 -41 160
-103 201 -160 84 -114 219 -235 379 -337 52 -33 111 -75 131 -92 20 -17 76
-62 125 -100 49 -39 102 -82 117 -97 15 -15 46 -37 68 -48 22 -12 68 -42 102
-69 34 -26 82 -61 107 -77 25 -16 80 -59 123 -94 43 -35 108 -85 144 -112 42
-31 61 -50 52 -53 -8 -3 -52 -12 -99 -21 -47 -9 -104 -21 -128 -26 -24 -5 -47
-7 -53 -4 -5 4 -66 -3 -135 -15 -70 -11 -129 -19 -131 -16 -3 2 -20 -2 -38
-10 -44 -18 -45 -18 -45 5 0 11 -4 23 -10 26 -5 3 -10 15 -10 26 0 24 -145
173 -205 211 -22 14 -50 35 -62 47 -12 12 -29 21 -36 21 -8 0 -27 16 -41 35
-15 19 -33 35 -40 35 -8 0 -32 20 -55 45 -23 25 -58 56 -79 69 -20 13 -43 35
-51 50 -8 15 -37 37 -67 51 -64 31 -130 85 -287 239 -67 65 -139 130 -159 144
-21 13 -40 33 -43 43 -4 11 -10 19 -14 19 -15 0 -94 108 -97 131 -1 13 -4 29
-5 34 -7 23 13 118 34 162 27 58 57 103 67 103 4 0 38 -21 76 -46z m-967 26
c54 -6 107 -18 128 -30 20 -10 40 -17 45 -14 11 7 10 -3 -3 -28 -9 -17 -17
-19 -48 -14 -31 5 -47 0 -96 -29 l-58 -35 -31 36 c-25 29 -39 37 -64 36 -43
-1 -44 -2 -82 -77 -37 -72 -50 -87 -50 -55 0 12 -12 28 -31 39 -39 24 -89 11
-126 -33 -31 -37 -30 -33 20 61 45 83 81 122 128 139 45 15 156 17 268 4z
m912 -1061 c13 -11 43 -37 67 -57 24 -20 60 -52 80 -70 20 -19 53 -45 72 -60
19 -15 65 -53 102 -84 61 -52 141 -112 274 -205 25 -18 55 -44 66 -58 18 -24
19 -25 1 -26 -10 -1 -21 -1 -25 0 -10 1 -107 -25 -141 -38 -16 -6 -45 -11 -65
-11 -20 0 -62 -7 -92 -15 -30 -8 -70 -15 -88 -15 -18 0 -61 -10 -95 -21 -34
-12 -91 -28 -127 -35 -36 -8 -77 -17 -91 -20 l-26 -6 -1 74 c-1 40 -4 102 -8
138 -10 96 -8 234 5 325 7 44 13 99 15 123 3 38 28 82 46 82 4 0 18 -9 31 -21z
m2985 -1520 c52 0 98 2 103 5 5 4 22 1 38 -5 30 -12 93 -16 361 -23 94 -3 176
-7 181 -11 17 -10 41 -111 41 -168 0 -89 -9 -117 -37 -117 -13 0 -39 -6 -58
-14 -36 -16 -84 -9 -135 20 -51 28 -179 82 -212 89 -18 4 -55 18 -83 31 -27
13 -79 32 -115 44 -36 12 -96 36 -135 55 -38 19 -91 43 -117 54 -27 11 -48 24
-48 30 0 10 82 20 109 14 7 -2 56 -4 107 -4z m1393 -1600 c10 -17 26 -62 35
-100 19 -74 18 -77 -27 -199 -24 -62 -49 -111 -72 -137 -9 -10 -35 -41 -58
-70 -23 -28 -67 -71 -97 -95 -30 -23 -63 -50 -72 -58 -20 -18 -106 -45 -115
-36 -10 9 73 90 138 135 50 34 54 40 51 72 -8 84 -55 100 -136 46 -84 -56
-109 -68 -121 -56 -12 13 94 113 135 128 96 35 141 55 147 64 11 18 4 66 -14
94 -15 22 -21 24 -56 19 -21 -4 -52 -13 -68 -21 -15 -8 -37 -15 -49 -15 -20 0
-20 1 -4 25 9 14 28 28 43 32 14 3 51 19 81 34 30 16 76 37 102 48 32 13 58
34 85 69 21 28 41 51 46 51 4 1 16 -13 26 -30z"/>
<path d="M3126 7257 c-44 -32 -42 -168 5 -335 32 -115 54 -150 117 -181 39
-19 45 -20 80 -6 42 17 150 137 188 209 27 51 57 161 50 184 -3 9 -15 23 -27
30 -32 20 -53 -5 -83 -102 -20 -63 -36 -95 -73 -138 -65 -76 -81 -85 -103 -61
-19 20 -54 117 -65 178 -4 22 -7 80 -6 128 0 85 -1 88 -25 97 -33 13 -37 13
-58 -3z"/>
<path d="M4069 6503 c-15 -39 19 -267 46 -315 12 -20 42 -56 69 -79 88 -77
172 -68 234 26 32 49 60 151 61 222 0 24 3 47 6 53 9 15 -41 60 -67 60 -33 0
-49 -33 -59 -118 -8 -73 -25 -135 -42 -159 -19 -26 -46 -13 -80 40 -33 49 -40
73 -66 204 -12 58 -34 87 -69 90 -16 1 -26 -6 -33 -24z"/>
<path d="M7290 4480 c-23 -17 -25 -25 -25 -101 l0 -81 -40 -35 c-94 -83 -141
-94 -173 -40 -11 17 -24 49 -28 71 -3 21 -15 47 -25 57 -41 41 -109 10 -109
-49 0 -32 36 -130 56 -153 8 -8 14 -19 14 -23 0 -4 7 -14 15 -22 8 -9 15 -12
15 -9 0 4 21 -5 46 -19 41 -23 51 -25 85 -16 133 36 227 110 264 207 16 40 17
56 7 116 -7 47 -18 77 -33 93 -27 29 -36 29 -69 4z"/>
<path d="M5932 4446 c-9 -20 -6 -40 14 -103 35 -107 61 -157 111 -213 51 -57
95 -70 145 -43 18 9 42 18 53 20 51 9 90 87 102 203 11 110 0 141 -55 155 -33
8 -62 -23 -62 -65 0 -15 -9 -48 -20 -74 -16 -35 -18 -50 -10 -66 28 -52 -45
-83 -87 -37 -22 23 -62 120 -70 172 -12 69 -96 104 -121 51z"/>
<path d="M2277 4381 c-3 -11 1 -22 9 -25 20 -8 28 14 12 31 -14 13 -16 12 -21
-6z"/>
<path d="M2924 4305 c-9 -22 24 -51 40 -35 7 7 3 17 -11 32 -21 20 -23 21 -29
3z"/>
<path d="M3596 3997 c-30 -50 -69 -82 -114 -92 -34 -7 -35 -6 -46 48 -6 27
-38 67 -53 67 -5 -1 -19 -10 -32 -21 -27 -22 -36 -82 -19 -128 14 -40 66 -94
100 -106 62 -20 148 21 232 112 37 41 48 60 49 87 1 44 -26 76 -64 76 -23 0
-33 -9 -53 -43z"/>
<path d="M2221 7911 c-8 -6 -9 -11 -3 -15 6 -3 14 -1 17 5 9 14 2 20 -14 10z"/>
<path d="M7291 74 c0 -11 3 -14 6 -6 3 7 2 16 -1 19 -3 4 -6 -2 -5 -13z"/>
</g>
</svg>
